The.Cold.Light.Of.Day.BRRip.XviD-RLF
                                            

GENERAL:

Complete name                    : rlf-tclod.avi
Format                           : AVI
Format/Info                      : Audio Video Interleave
File size                        : 659 MiB
Duration                         : 1h 28mn
Overall bit rate                 : 1 037 Kbps 
Language                         : English
Subs                             : English
Encoder                          : Ralf

Video:

Format                           : MPEG-4 Visual
Format profile                   : Advanced Simple@L5
Format settings, BVOP            : 2
Format settings, QPel            : No
Format settings, GMC             : No warppoints
Format settings, Matrix          : H.263
Muxing mode                      : Packed bitstream
Codec ID                         : XVID
Duration                         : 1h 28mn
Bit rate                         : 900 Kbps
Width                            : 688 pixels
Height                           : 288 pixels
Display aspect ratio             : 2.35:1
Frame rate                       : 23.976 fps
Color space                      : YUV
Chroma subsampling               : 4:2:0
Bit depth                        : 8 bits
Scan type                        : Progressive
Bits/(Pixel*Frame)               : 0.189
Stream size                      : 572 MiB (87%)      
Stream size                      : Xvid 64

Audio:

Format                           : MPEG Audio
Format version                   : Version 1
Codec ID/Hint                    : MP3
Duration                         : 1h 28mn
Bit rate mode                    : Constant
Bit rate                         : 128 Kbps
Channel(s)                       : 2 channels
Sampling rate                    : 48.0 KHz
Delay relative to video          : 6ms
Stream size                      : 81.4 MiB (12%)
Alignment                        : Split accross interleaves
Interleave, duration             : 42 ms (1.00 video frame)
Interleave, preload duration     : 500 ms

MOVIE INFO:

After his family is kidnapped during their sailing trip in Spain, 
a young Wall Street trader is confronted by the people responsible: 
intelligence agents looking to recover a mysterious briefcase.
 
http://www.imdb.com/title/tt1366365/                
http://www.filmweb.pl/film/Cold+Light+of+Day,+The-2012-507060
                       
                        
SOURCE:

HAiDEAF's 720p.BluRay.x264 (THX DoNE)

SCREENS:
 
http://image.bayimg.com/mabacaaej.jpg 
http://image.bayimg.com/mabadaaej.jpg 
http://image.bayimg.com/mabaeaaej.jpg 
http://image.bayimg.com/mabafaaej.jpg